<svg width="90" height="17" viewBox="0 0 90 17" fill="none" xmlns="http://www.w3.org/2000/svg">
<path d="M16.4362 15.9041L14.9242 13.4681H5.88015L4.36815 15.9041H0.000152341L10.4162 5.22137e-05L20.8322 15.9041H16.4362ZM10.4162 6.24405L7.98015 10.1081H12.8242L10.4162 6.24405ZM40.2987 15.9041H35.7627L32.2907 10.9481H27.1667V15.9041H23.2187V0.280052H34.2787C38.7307 0.280052 40.0747 3.61205 40.0747 5.60005C40.0747 7.11205 39.1507 9.35205 36.4907 10.3881L40.2987 15.9041ZM33.2707 3.64005H27.1667V7.58805H33.2707C35.5107 7.58805 35.9587 6.32805 35.9587 5.60005C35.9587 4.90005 35.5107 3.64005 33.2707 3.64005ZM59.9313 10.6401H54.9753V7.28005H64.2993C64.3553 7.64405 64.4113 8.00805 64.4113 8.37205C64.3833 12.6841 60.2393 16.1841 54.1073 16.1841C47.2193 16.1841 42.9353 12.5441 42.9353 8.09205C42.9353 3.66805 47.2193 5.22137e-05 54.0513 5.22137e-05C56.8513 5.22137e-05 59.5393 0.336051 61.6953 1.23205V4.81605C60.3233 4.28405 58.5873 3.36005 54.6113 3.36005C50.2433 3.36005 47.1353 5.18005 47.1353 8.09205C47.1353 10.7521 50.0473 12.8241 54.0793 12.8241C56.9913 12.8241 59.0633 11.9841 59.9313 10.6401ZM89.407 8.09205C89.407 12.7961 85.207 16.1841 77.983 16.1841C71.011 16.1841 66.615 12.7961 66.615 8.09205C66.615 3.38805 71.039 5.22137e-05 77.983 5.22137e-05C84.955 5.22137e-05 89.407 3.38805 89.407 8.09205ZM85.207 8.09205C85.207 5.20805 82.155 3.33205 77.983 3.33205C73.811 3.33205 70.815 5.20805 70.815 8.09205C70.815 11.0041 73.839 12.8521 77.983 12.8521C82.183 12.8521 85.207 11.0041 85.207 8.09205Z" fill="white"/>
</svg>
