<svg width="175" height="29" viewBox="0 0 175 29" fill="none" xmlns="http://www.w3.org/2000/svg">
<path d="M3.24 28H2.28H0.88L0.84 27.92C1.68 27.24 2.36 26.2 2.96 24.72L13.28 0.0399976H13.48L4.76 21.68C3.64 24.6 3.72 27.08 5.36 27.92L5.32 28H3.24ZM25.64 28H22.44H21.08L21.04 27.92C21.72 27.56 21.84 26.56 21.24 25.16L11.84 2.84C11.2 1.44 10.48 0.44 9.8 0.0799994L9.84 -1.90735e-06H11.2H14.4L25 25.16C25.6 26.56 26.28 27.56 27.04 27.92L27 28H25.64ZM5.72 19.12V18.88L20.12 18.8V19.12H5.72ZM35.3047 28H32.1847H30.8247L30.7847 27.92C31.5447 27.56 31.9047 26.44 31.9047 24.96V10.12C31.9047 8.64 31.4647 7.68 30.6647 7.52V7.44L31.9847 7.04L35.5447 6L35.3847 10.88H35.5847V24.96C35.5847 26.44 35.9447 27.56 36.7047 27.92L36.6647 28H35.3047ZM35.5847 13.56H35.3447C35.0647 8.72 37.0647 5.76 40.7447 5.76C41.8247 5.76 43.0247 6.04 43.8647 6.4V10.76H43.7047C42.8647 8.56 41.1047 7.12 39.4247 7.12C36.8647 7.12 35.5847 9.24 35.5847 13.56ZM80.7891 28H77.5891H76.2291L76.1891 27.92C76.9891 27.56 77.2691 26.44 77.1091 24.96L76.0691 13.6C75.6291 8.8 74.2291 6.52 71.6291 6.52C68.5891 6.52 66.5091 9.36 66.5091 13.48H66.2291C66.2291 8.68 68.8691 5.76 73.2291 5.76C76.8691 5.76 79.1891 8.36 79.6291 12.8L80.8291 24.96C80.9891 26.44 81.4291 27.56 82.1891 27.92L82.1491 28H80.7891ZM52.9891 28H49.8691H48.5091L48.4691 27.92C49.2291 27.56 49.5891 26.44 49.5891 24.96V10.12C49.5891 8.64 49.1491 7.68 48.3491 7.56V7.48L49.6691 7.04L52.9891 6V11.8H53.2691V24.96C53.2691 26.44 53.6291 27.56 54.3891 27.92L54.3491 28H52.9891ZM66.3091 28H63.1891H61.8291L61.7891 27.92C62.4691 27.56 62.9091 26.44 62.9091 24.96V13.56C62.9091 8.96 61.1091 6.52 58.3891 6.52C55.3491 6.52 53.2691 9.36 53.2691 13.48H52.9891C52.9891 8.68 55.6691 5.76 60.0291 5.76C63.2691 5.76 66.2691 8.2 66.1891 12.72H66.4691L66.5491 24.96C66.5891 26.44 67.0291 27.56 67.7091 27.92L67.6691 28H66.3091ZM95.9859 28.24C89.7459 28.24 85.3859 23.64 85.3859 17.24C85.3859 15.08 85.8659 13.12 86.8659 11.36C88.8259 7.84 92.4659 5.76 96.8259 5.76C101.786 5.76 104.986 8.64 105.906 13.96L88.0259 13.84L88.0659 13.36L102.706 12.84L102.506 13.04C102.186 9.28 98.9059 6.32 95.0259 6.32C91.0659 6.32 88.7059 9.4 88.7059 14.64C88.7059 16.84 89.1059 18.8 89.9459 20.6C91.5859 24.2 94.5859 26.4 97.9859 26.4C102.466 26.4 105.626 23.36 105.706 19.04H105.946C105.946 24.56 101.426 28.24 95.9859 28.24ZM114.647 28H111.527H110.167L110.127 27.92C110.887 27.56 111.247 26.44 111.247 24.96V10.12C111.247 8.64 110.807 7.68 110.007 7.52V7.44L111.327 7.04L114.887 6L114.727 10.88H114.927V24.96C114.927 26.44 115.287 27.56 116.047 27.92L116.007 28H114.647ZM114.927 13.56H114.687C114.407 8.72 116.407 5.76 120.087 5.76C121.167 5.76 122.367 6.04 123.207 6.4V10.76H123.047C122.207 8.56 120.447 7.12 118.767 7.12C116.207 7.12 114.927 9.24 114.927 13.56ZM146.411 6V24.96C146.411 26.44 146.851 27.56 147.531 27.92L147.491 28H146.131H142.891V18.76L142.771 18.6V10.12C142.771 8.64 142.331 7.68 141.531 7.52V7.44L142.811 7.04L146.411 6ZM128.491 21.2L128.451 10.12C128.451 8.64 128.011 7.68 127.211 7.52V7.44L128.491 7.04L132.091 6V20.4C132.051 24.88 133.931 27.32 136.811 27.32C140.211 27.32 142.771 23.24 142.771 16.92H143.011C143.011 23.92 140.091 28.2 135.331 28.2C131.291 28.2 128.531 25.4 128.491 21.2ZM173.068 28H169.908H168.548L168.508 27.92C169.268 27.56 169.588 26.44 169.428 24.96L168.388 13.6C167.948 8.8 166.308 6.52 163.268 6.52C160.188 6.52 158.108 9.36 158.108 13.48H157.828C157.828 8.68 160.468 5.76 164.828 5.76C168.868 5.76 171.508 8.36 171.948 12.8L173.148 24.96C173.268 26.44 173.788 27.56 174.468 27.92L174.428 28H173.068ZM157.828 28H154.708H153.348L153.308 27.92C154.068 27.56 154.428 26.44 154.428 24.96V10.12C154.428 8.64 153.988 7.68 153.188 7.56V7.48L154.508 7.04L157.788 6L157.828 12.28H158.108V24.96C158.108 26.44 158.468 27.56 159.228 27.92L159.188 28H157.828Z" fill="white"/>
</svg>
