<svg width="48" height="48" viewBox="0 0 48 48" fill="none" xmlns="http://www.w3.org/2000/svg">
<path d="M40 40L29.3333 29.3333M8 20.4444C8 22.0787 8.32189 23.6969 8.94728 25.2067C9.57267 26.7166 10.4893 28.0884 11.6449 29.244C12.8005 30.3996 14.1723 31.3162 15.6822 31.9416C17.192 32.567 18.8102 32.8889 20.4444 32.8889C22.0787 32.8889 23.6969 32.567 25.2067 31.9416C26.7166 31.3162 28.0884 30.3996 29.244 29.244C30.3996 28.0884 31.3162 26.7166 31.9416 25.2067C32.567 23.6969 32.8889 22.0787 32.8889 20.4444C32.8889 18.8102 32.567 17.192 31.9416 15.6822C31.3162 14.1723 30.3996 12.8005 29.244 11.6449C28.0884 10.4893 26.7166 9.57267 25.2067 8.94728C23.6969 8.32188 22.0787 8 20.4444 8C18.8102 8 17.192 8.32188 15.6822 8.94728C14.1723 9.57267 12.8005 10.4893 11.6449 11.6449C10.4893 12.8005 9.57267 14.1723 8.94728 15.6822C8.32189 17.192 8 18.8102 8 20.4444Z" stroke="#15243C" stroke-width="1.5" stroke-linecap="round" stroke-linejoin="round"/>
</svg>
