<svg width="37" height="42" viewBox="0 0 37 42" fill="none" xmlns="http://www.w3.org/2000/svg">
<path d="M31.175 36.1299C31.175 36.1299 30.2808 37.024 28.4925 38.8124C26.7042 40.6007 23.2967 41.4949 18.27 41.4949C13.2433 41.4949 8.94167 39.7065 5.365 36.1299C1.78833 32.5532 0 28.2515 0 23.2249C0 18.1982 1.78833 13.8965 5.365 10.3199C8.94167 6.7432 13.2433 4.95487 18.27 4.95487C23.2967 4.95487 27.5983 6.7432 31.175 10.3199C34.7517 13.8965 36.54 18.1982 36.54 23.2249C36.54 28.2515 34.7517 32.5532 31.175 36.1299ZM24.7225 7.9455C24.7225 7.9455 24.209 7.72498 23.1819 7.28393C22.1548 6.84289 20.5175 6.62237 18.27 6.62237C16.0225 6.62237 13.8717 7.06341 11.8175 7.9455C9.76333 8.82758 7.99917 10.0057 6.525 11.4799C5.05083 12.954 3.87271 14.7182 2.99063 16.7724C2.10854 18.8265 1.6675 20.9774 1.6675 23.2249C1.6675 25.4724 2.10854 27.6232 2.99063 29.6774C3.87271 31.7315 5.05083 33.5017 6.525 34.988C7.99917 36.4742 9.76333 37.6524 11.8175 38.5224C13.8717 39.3924 16.0225 39.8274 18.27 39.8274C20.5175 39.8274 22.6683 39.3924 24.7225 38.5224C26.7767 37.6524 28.5469 36.4742 30.0331 34.988C31.5194 33.5017 32.6975 31.7315 33.5675 29.6774C34.4375 27.6232 34.8725 25.4724 34.8725 23.2249C34.8725 20.9774 34.4315 18.8265 33.5494 16.7724C32.6673 14.7182 31.4892 12.954 30.015 11.4799C28.5408 10.0057 26.7767 8.82758 24.7225 7.9455ZM21.7863 24.0224H19.2488V31.5624C18.7171 31.6349 18.1613 31.6711 17.5813 31.6711C17.0013 31.6711 16.4333 31.6349 15.8775 31.5624V24.0224H13.1588V20.9049H15.8775V18.5124C15.8775 17.1832 16.246 16.1561 16.9831 15.4311C17.7202 14.7061 18.7171 14.3436 19.9738 14.3436C20.3121 14.3436 20.6867 14.3557 21.0975 14.3799C21.5083 14.404 21.8225 14.4403 22.04 14.4886L22.3663 14.5249V17.2074H21.025C20.3967 17.2074 19.9435 17.3645 19.6656 17.6786C19.3877 17.9928 19.2488 18.3915 19.2488 18.8749V20.9049H22.2575L21.7863 24.0224Z" fill="white"/>
</svg>
