<svg width="37" height="42" viewBox="0 0 37 42" fill="none" xmlns="http://www.w3.org/2000/svg">
<path d="M31.1665 36.1201C31.1665 36.1201 30.2725 37.014 28.4847 38.8019C26.6969 40.5897 23.2903 41.4836 18.265 41.4836C13.2397 41.4836 8.93922 39.6958 5.36353 36.1201C1.78784 32.5444 0 28.2439 0 23.2186C0 18.1934 1.78784 13.8929 5.36353 10.3172C8.93922 6.74149 13.2397 4.95364 18.265 4.95364C23.2903 4.95364 27.5908 6.74149 31.1665 10.3172C34.7422 13.8929 36.53 18.1934 36.53 23.2186C36.53 28.2439 34.7422 32.5444 31.1665 36.1201ZM24.7157 7.94345C24.7157 7.94345 24.2023 7.72299 23.1755 7.28207C22.1487 6.84115 20.5119 6.62069 18.265 6.62069C16.0181 6.62069 13.8679 7.06161 11.8143 7.94345C9.76066 8.82529 7.99698 10.0031 6.52321 11.4769C5.04945 12.9506 3.87165 14.7143 2.98981 16.7679C2.10796 18.8215 1.66704 20.9718 1.66704 23.2186C1.66704 25.4655 2.10796 27.6158 2.98981 29.6694C3.87165 31.723 5.04945 33.4867 6.52321 34.9604C7.99698 36.4342 9.76066 37.612 11.8143 38.4938C13.8679 39.3757 16.0181 39.8166 18.265 39.8166C20.5119 39.8166 22.6621 39.3757 24.7157 38.4938C26.7693 37.612 28.533 36.4342 30.0068 34.9604C31.4805 33.4867 32.6583 31.723 33.5402 29.6694C34.422 27.6158 34.863 25.4655 34.863 23.2186C34.863 20.9718 34.422 18.8215 33.5402 16.7679C32.6583 14.7143 31.4805 12.9506 30.0068 11.4769C28.533 10.0031 26.7693 8.82529 24.7157 7.94345ZM15.0759 30.213C16.6221 30.213 18.0536 29.911 19.3703 29.307C20.687 28.703 21.7501 27.9117 22.5594 26.9333C23.3688 25.9548 23.997 24.8796 24.4439 23.7079C24.8909 22.5361 25.1144 21.3583 25.1144 20.1745C25.1144 20.0054 25.1144 19.8483 25.1144 19.7034C25.815 19.196 26.4069 18.592 26.8901 17.8914C26.2378 18.1571 25.5613 18.3383 24.8607 18.435C25.6097 17.9759 26.1291 17.3236 26.419 16.478C25.7184 16.8887 24.9694 17.1786 24.1721 17.3477C23.4715 16.5988 22.6017 16.2243 21.5628 16.2243C20.5964 16.2243 19.769 16.5686 19.0804 17.2572C18.3918 17.9457 18.0476 18.7732 18.0476 19.7396C18.0476 20.0054 18.0717 20.2832 18.12 20.5731C16.6946 20.5006 15.3477 20.1382 14.0793 19.4859C12.8109 18.8336 11.7297 17.9638 10.8358 16.8766C10.5217 17.4081 10.3647 18.0001 10.3647 18.6524C10.3647 19.9087 10.8962 20.8872 11.9592 21.5878C11.3794 21.5637 10.8358 21.4187 10.3284 21.153V21.1892C10.3284 21.7449 10.4553 22.2704 10.7089 22.7656C10.9626 23.2609 11.3069 23.6716 11.7418 23.9978C12.1767 24.324 12.6599 24.5474 13.1914 24.6682C12.8773 24.7407 12.5632 24.777 12.2491 24.777C12.0317 24.777 11.8143 24.7528 11.5968 24.7045C11.7418 25.1877 11.9713 25.6105 12.2854 25.9729C12.5995 26.3353 12.986 26.6252 13.4451 26.8427C13.9041 27.0601 14.3873 27.1688 14.8947 27.1688C13.6142 28.1835 12.1525 28.6909 10.5096 28.6909C10.1955 28.6909 9.90562 28.6788 9.63986 28.6547C11.3069 29.6935 13.1189 30.213 15.0759 30.213Z" fill="white"/>
</svg>
