<svg width="37" height="42" viewBox="0 0 37 42" fill="none" xmlns="http://www.w3.org/2000/svg">
<path d="M18.265 15.2458C19.7871 15.2458 20.8864 15.27 21.5628 15.3183C22.2876 15.3425 22.9279 15.4633 23.4836 15.6807C24.0151 15.874 24.4862 16.176 24.8969 16.5867C25.2835 16.9974 25.5855 17.4685 25.8029 18.0001C26.0204 18.5316 26.1412 19.1718 26.1653 19.9208C26.2137 20.6698 26.2378 21.769 26.2378 23.2186C26.2378 24.7407 26.2137 25.84 26.1653 26.5165C26.1412 27.2413 26.0204 27.8815 25.8029 28.4372C25.6097 28.9687 25.3077 29.4399 24.8969 29.8506C24.4862 30.2371 24.0151 30.5391 23.4836 30.7566C22.952 30.974 22.3118 31.0948 21.5628 31.119C20.8139 31.1673 19.7146 31.1915 18.265 31.1915C16.7429 31.1915 15.6436 31.1673 14.9672 31.119C14.2424 31.0948 13.6021 30.974 13.0464 30.7566C12.5149 30.5633 12.0438 30.2613 11.6331 29.8506C11.2465 29.4399 10.9445 28.9687 10.7271 28.4372C10.5096 27.9057 10.3888 27.2655 10.3647 26.5165C10.3163 25.7675 10.2922 24.6682 10.2922 23.2186C10.2922 21.6966 10.3163 20.5973 10.3647 19.9208C10.3888 19.196 10.5096 18.5558 10.7271 18.0001C10.9203 17.4685 11.2223 16.9974 11.6331 16.5867C12.0438 16.2001 12.5149 15.8981 13.0464 15.6807C13.5779 15.4633 14.2182 15.3425 14.9672 15.3183C15.7161 15.27 16.8154 15.2458 18.265 15.2458ZM21.4904 16.7317C20.8139 16.7075 19.7388 16.6954 18.265 16.6954C16.7912 16.6954 15.7161 16.7075 15.0396 16.7317C14.4598 16.7558 13.9645 16.8525 13.5538 17.0216C13.2155 17.1424 12.9135 17.3357 12.6478 17.6014C12.382 17.8672 12.1887 18.1692 12.0679 18.5074C11.8988 18.9182 11.8022 19.4134 11.778 19.9933C11.7539 20.6698 11.7418 21.7449 11.7418 23.2186C11.7418 24.6441 11.7539 25.7192 11.778 26.444C11.8022 27.0239 11.8988 27.5191 12.0679 27.9299C12.1887 28.2681 12.382 28.5701 12.6478 28.8359C12.9135 29.1016 13.2155 29.2949 13.5538 29.4157C13.9645 29.5848 14.4598 29.6815 15.0396 29.7056C15.7161 29.7298 16.7912 29.7419 18.265 29.7419C19.6904 29.7419 20.7656 29.7298 21.4904 29.7056C22.0702 29.6815 22.5655 29.5848 22.9762 29.4157C23.3145 29.2949 23.6165 29.1016 23.8822 28.8359C24.148 28.5701 24.3413 28.2681 24.4621 27.9299C24.6312 27.5191 24.7278 27.0239 24.752 26.444C24.7761 25.7675 24.7882 24.6924 24.7882 23.2186C24.7882 21.7932 24.7761 20.7181 24.752 19.9933C24.7278 19.4134 24.6312 18.9182 24.4621 18.5074C24.3413 18.1692 24.148 17.8672 23.8822 17.6014C23.6165 17.3357 23.3145 17.1424 22.9762 17.0216C22.5655 16.8525 22.0702 16.7558 21.4904 16.7317ZM18.265 25.8642C18.7482 25.8642 19.1952 25.7494 19.6059 25.5199C20.0166 25.2904 20.3367 24.9702 20.5662 24.5595C20.7958 24.1488 20.9105 23.7018 20.9105 23.2186C20.9105 22.4938 20.6508 21.8717 20.1314 21.3523C19.6119 20.8328 18.9898 20.5731 18.265 20.5731C17.5402 20.5731 16.9181 20.8328 16.3986 21.3523C15.8792 21.8717 15.6195 22.4938 15.6195 23.2186C15.6195 23.9434 15.8792 24.5656 16.3986 25.085C16.9181 25.6044 17.5402 25.8642 18.265 25.8642ZM15.3658 20.3194C15.3658 20.3194 15.5651 20.1201 15.9638 19.7215C16.3624 19.3228 17.1295 19.1235 18.265 19.1235C19.4005 19.1235 20.3669 19.5222 21.1642 20.3194C21.9615 21.1167 22.3601 22.0831 22.3601 23.2186C22.3601 24.3542 21.9615 25.3206 21.1642 26.1178C20.3669 26.9151 19.4005 27.3138 18.265 27.3138C17.1295 27.3138 16.1631 26.9151 15.3658 26.1178C14.5685 25.3206 14.1699 24.3542 14.1699 23.2186C14.1699 22.0831 14.5685 21.1167 15.3658 20.3194ZM23.1936 18.29C23.1936 18.29 23.242 18.3383 23.3386 18.435C23.4353 18.5316 23.4836 18.7128 23.4836 18.9786C23.4836 19.2443 23.3869 19.4678 23.1936 19.649C23.0004 19.8302 22.7708 19.9208 22.5051 19.9208C22.2393 19.9208 22.0158 19.8302 21.8346 19.649C21.6534 19.4678 21.5628 19.2443 21.5628 18.9786C21.5628 18.7128 21.6534 18.4833 21.8346 18.29C22.0158 18.0967 22.2393 18.0001 22.5051 18.0001C22.7708 18.0001 23.0004 18.0967 23.1936 18.29ZM31.1665 36.1201C31.1665 36.1201 30.2725 37.014 28.4847 38.8019C26.6969 40.5897 23.2903 41.4836 18.265 41.4836C13.2397 41.4836 8.93922 39.6958 5.36353 36.1201C1.78784 32.5444 0 28.2439 0 23.2186C0 18.1934 1.78784 13.8929 5.36353 10.3172C8.93922 6.74149 13.2397 4.95364 18.265 4.95364C23.2903 4.95364 27.5908 6.74149 31.1665 10.3172C34.7422 13.8929 36.53 18.1934 36.53 23.2186C36.53 28.2439 34.7422 32.5444 31.1665 36.1201ZM24.7157 7.94345C24.7157 7.94345 24.2023 7.72299 23.1755 7.28207C22.1487 6.84115 20.5119 6.62069 18.265 6.62069C16.0181 6.62069 13.8679 7.06161 11.8143 7.94345C9.76066 8.82529 7.99698 10.0031 6.52321 11.4769C5.04945 12.9506 3.87165 14.7143 2.98981 16.7679C2.10796 18.8215 1.66704 20.9718 1.66704 23.2186C1.66704 25.4655 2.10796 27.6158 2.98981 29.6694C3.87165 31.723 5.04945 33.4867 6.52321 34.9604C7.99698 36.4342 9.76066 37.612 11.8143 38.4938C13.8679 39.3757 16.0181 39.8166 18.265 39.8166C20.5119 39.8166 22.6621 39.3757 24.7157 38.4938C26.7693 37.612 28.533 36.4342 30.0068 34.9604C31.4805 33.4867 32.6584 31.723 33.5402 29.6694C34.422 27.6158 34.863 25.4655 34.863 23.2186C34.863 20.9718 34.422 18.8215 33.5402 16.7679C32.6584 14.7143 31.4805 12.9506 30.0068 11.4769C28.533 10.0031 26.7693 8.82529 24.7157 7.94345Z" fill="white"/>
</svg>
