<svg width="37" height="42" viewBox="0 0 37 42" fill="none" xmlns="http://www.w3.org/2000/svg">
<path d="M31.1665 36.1201C31.1665 36.1201 30.2725 37.014 28.4847 38.8019C26.6969 40.5897 23.2903 41.4836 18.265 41.4836C13.2397 41.4836 8.93922 39.6958 5.36353 36.1201C1.78784 32.5444 0 28.2439 0 23.2186C0 18.1934 1.78784 13.8929 5.36353 10.3172C8.93922 6.74149 13.2397 4.95364 18.265 4.95364C23.2903 4.95364 27.5908 6.74149 31.1665 10.3172C34.7422 13.8929 36.53 18.1934 36.53 23.2186C36.53 28.2439 34.7422 32.5444 31.1665 36.1201ZM24.7157 7.94345C24.7157 7.94345 24.2023 7.72299 23.1755 7.28207C22.1487 6.84115 20.5119 6.62069 18.265 6.62069C16.0181 6.62069 13.8679 7.06161 11.8143 7.94345C9.76066 8.82529 7.99698 10.0031 6.52321 11.4769C5.04945 12.9506 3.87165 14.7143 2.98981 16.7679C2.10796 18.8215 1.66704 20.9718 1.66704 23.2186C1.66704 25.4655 2.10796 27.6158 2.98981 29.6694C3.87165 31.723 5.04945 33.4867 6.52321 34.9604C7.99698 36.4342 9.76066 37.612 11.8143 38.4938C13.8679 39.3757 16.0181 39.8166 18.265 39.8166C20.5119 39.8166 22.6621 39.3757 24.7157 38.4938C26.7693 37.612 28.533 36.4342 30.0068 34.9604C31.4805 33.4867 32.6584 31.723 33.5402 29.6694C34.422 27.6158 34.863 25.4655 34.863 23.2186C34.863 20.9718 34.422 18.8215 33.5402 16.7679C32.6584 14.7143 31.4805 12.9506 30.0068 11.4769C28.533 10.0031 26.7693 8.82529 24.7157 7.94345ZM27.1801 18.7249C27.2767 19.1598 27.3613 19.7517 27.4337 20.5006C27.5062 21.2496 27.5425 21.8898 27.5425 22.4214V23.2186C27.5425 25.2481 27.4217 26.746 27.1801 27.7124C26.9385 28.5822 26.3828 29.1379 25.513 29.3795C25.1023 29.5003 24.2869 29.5909 23.0668 29.6513C21.8467 29.7117 20.7414 29.7419 19.7508 29.7419L18.265 29.7781C14.3994 29.7781 11.9834 29.6452 11.017 29.3795C10.7995 29.3311 10.6063 29.2526 10.4371 29.1439C10.268 29.0352 10.111 28.9083 9.96602 28.7634C9.82106 28.6184 9.69422 28.4553 9.5855 28.2741C9.47678 28.0929 9.39826 27.9057 9.34994 27.7124C9.2533 27.2775 9.16874 26.6856 9.09626 25.9366C9.02378 25.1877 8.98754 24.5474 8.98754 24.0159V23.2186C8.98754 21.1892 9.10834 19.6913 9.34994 18.7249C9.59154 17.8551 10.1472 17.2994 11.017 17.0578C11.2103 17.0095 11.4941 16.9612 11.8686 16.9129C12.2431 16.8645 12.6478 16.8283 13.0827 16.8041C13.5175 16.78 13.9766 16.7619 14.4598 16.7498C14.943 16.7377 15.4081 16.7256 15.855 16.7135C16.302 16.7015 16.7067 16.6894 17.0691 16.6773C17.4315 16.6652 17.7214 16.6592 17.9388 16.6592H18.265C22.1306 16.6592 24.5466 16.7921 25.513 17.0578C25.9237 17.1786 26.2741 17.384 26.564 17.6739C26.8539 17.9638 27.0593 18.3142 27.1801 18.7249ZM16.3805 25.9729L21.2367 23.2186L16.3805 20.4644V25.9729Z" fill="white"/>
</svg>
