<svg width="37" height="42" viewBox="0 0 37 42" fill="none" xmlns="http://www.w3.org/2000/svg">
<path d="M5.36353 10.3172C5.36353 10.3172 6.25745 9.42325 8.0453 7.63541C9.83314 5.84756 13.2397 4.95364 18.265 4.95364C23.2903 4.95364 27.5908 6.74149 31.1665 10.3172C34.7422 13.8929 36.53 18.1934 36.53 23.2186C36.53 28.2439 34.7422 32.5444 31.1665 36.1201C27.5908 39.6958 23.2903 41.4836 18.265 41.4836C13.2397 41.4836 8.93922 39.6958 5.36353 36.1201C1.78784 32.5444 0 28.2439 0 23.2186C0 18.1934 1.78784 13.8929 5.36353 10.3172ZM11.8143 38.4938C11.8143 38.4938 12.3277 38.7143 13.3545 39.1552C14.3813 39.5961 16.0181 39.8166 18.265 39.8166C20.5119 39.8166 22.6621 39.3757 24.7157 38.4938C26.7693 37.612 28.5391 36.4342 30.0249 34.9604C31.5107 33.4867 32.6885 31.723 33.5583 29.6694C34.4281 27.6158 34.863 25.4655 34.863 23.2186C34.863 20.9718 34.422 18.8215 33.5402 16.7679C32.6584 14.7143 31.4805 12.9506 30.0068 11.4769C28.533 10.0031 26.7693 8.82529 24.7157 7.94345C22.6621 7.06161 20.5119 6.62069 18.265 6.62069C16.0181 6.62069 13.8679 7.06161 11.8143 7.94345C9.76066 8.82529 7.99698 10.0031 6.52321 11.4769C5.04945 12.9506 3.87165 14.7143 2.98981 16.7679C2.10796 18.8215 1.66704 20.9718 1.66704 23.2186C1.66704 25.4655 2.10796 27.6158 2.98981 29.6694C3.87165 31.723 5.04945 33.4867 6.52321 34.9604C7.99698 36.4342 9.76066 37.612 11.8143 38.4938ZM21.9615 13.76C22.1306 15.1129 22.5836 16.176 23.3205 16.9491C24.0574 17.7222 25.0781 18.145 26.3828 18.2175V21.2254C25.0781 21.3704 23.6165 20.9476 21.9977 19.957V25.6105C21.9977 26.7702 21.7984 27.8211 21.3998 28.7634C21.0011 29.7056 20.4877 30.4667 19.8596 31.0465C19.2314 31.6263 18.5126 32.0612 17.7033 32.3511C16.8939 32.6411 16.0906 32.7437 15.2933 32.6592C14.496 32.5746 13.7169 32.2968 12.9558 31.8257C12.1948 31.3545 11.5606 30.7083 11.0532 29.8868C10.5459 29.0412 10.262 28.099 10.2016 27.0601C10.1412 26.0212 10.3043 25.0246 10.6908 24.0703C11.0774 23.116 11.7961 22.3006 12.8471 21.6241C13.8981 20.9476 15.1967 20.5852 16.7429 20.5369V23.726C16.1872 23.7985 15.6799 23.9193 15.2208 24.0884C13.6746 24.6199 12.9981 25.6226 13.1914 27.0963C13.3363 28.1111 13.9162 28.8359 14.9309 29.2707C16.0423 29.7298 16.9966 29.5969 17.7939 28.8721C18.6153 28.099 18.9656 26.8306 18.8448 25.0669V13.76H21.9615Z" fill="white"/>
</svg>
