<svg width="35" height="34" viewBox="0 0 35 34" fill="none" xmlns="http://www.w3.org/2000/svg">
<g clip-path="url(#clip0)">
<path d="M25.1509 11.1625C24.8941 10.649 24.6374 10.3922 24.3806 10.1355C24.1238 9.87869 23.6103 9.62193 23.3535 9.36516C23.0968 9.1084 22.5832 9.1084 21.5562 9.1084C20.5291 9.1084 20.2724 9.1084 17.448 9.1084C14.8803 9.1084 14.3668 9.1084 13.3397 9.1084C12.3127 9.1084 11.7992 9.36516 11.5424 9.36516C11.0289 9.62193 10.7721 9.87869 10.5153 10.1355C10.2586 10.3922 10.0018 10.9057 9.74504 11.1625C9.48828 11.4193 9.48828 11.9328 9.48828 12.9599C9.48828 13.9869 9.48828 14.2437 9.48828 17.0681C9.48828 19.6357 9.48828 20.1492 9.48828 21.1763C9.48828 22.2034 9.74504 22.7169 9.74504 22.9736C10.0018 23.4872 10.2586 23.7439 10.5153 24.0007C10.7721 24.2575 11.2856 24.5142 11.5424 24.771C11.7992 25.0278 12.3127 25.0278 13.3397 25.0278C14.3668 25.0278 14.6236 25.0278 17.448 25.0278C20.0156 25.0278 20.5291 25.0278 21.5562 25.0278C22.5832 25.0278 23.0968 24.771 23.3535 24.771C23.8671 24.5142 24.1238 24.2575 24.3806 24.0007C24.6374 23.7439 24.8941 23.2304 25.1509 22.9736C25.4076 22.7169 25.4076 22.2034 25.4076 21.1763C25.4076 20.1492 25.4076 19.8925 25.4076 17.0681C25.4076 14.5004 25.4076 13.9869 25.4076 12.9599C25.6644 11.9328 25.4076 11.4193 25.1509 11.1625ZM17.448 22.2034C14.6236 22.2034 12.3127 19.8925 12.3127 17.0681C12.3127 14.2437 14.6236 11.9328 17.448 11.9328C20.2724 11.9328 22.5832 14.2437 22.5832 17.0681C22.5832 19.8925 20.2724 22.2034 17.448 22.2034ZM22.84 12.9599C22.0697 12.9599 21.5562 12.4463 21.5562 11.676C21.5562 10.9057 22.0697 10.3922 22.84 10.3922C23.6103 10.3922 23.8671 10.9057 23.8671 11.676C23.8671 12.1896 23.3535 12.9599 22.84 12.9599Z" fill="#12305C"/>
<path d="M17.4488 20.4063C19.2923 20.4063 20.7867 18.9119 20.7867 17.0684C20.7867 15.2249 19.2923 13.7305 17.4488 13.7305C15.6053 13.7305 14.1108 15.2249 14.1108 17.0684C14.1108 18.9119 15.6053 20.4063 17.4488 20.4063Z" fill="#12305C"/>
<path d="M17.4484 0.378906C8.20494 0.378906 0.758789 7.82506 0.758789 17.0686C0.758789 26.3121 8.20494 33.7582 17.4484 33.7582C26.6919 33.7582 34.1381 26.3121 34.1381 17.0686C34.1381 7.82506 26.6919 0.378906 17.4484 0.378906ZM27.4622 21.1768C27.4622 22.2038 27.2055 22.9741 26.9487 23.4877C26.6919 24.258 26.4352 24.7715 25.9217 25.285C25.4081 25.7985 24.8946 26.3121 24.1243 26.3121C23.6108 26.5688 22.8405 26.8256 21.8134 26.8256C20.7864 26.8256 20.5296 26.8256 17.7052 26.8256C14.8808 26.8256 14.624 26.8256 13.597 26.8256C12.5699 26.8256 11.7996 26.5688 11.2861 26.3121C10.5158 26.0553 10.0023 25.7985 9.48877 25.285C8.97524 24.7715 8.46171 24.258 8.46171 23.4877C8.20494 22.9741 7.94818 22.2038 7.94818 21.1768C7.94818 20.1497 7.94818 19.893 7.94818 17.0686C7.94818 14.2442 7.94818 13.9874 7.94818 12.9603C7.94818 11.9333 8.20494 11.163 8.46171 10.6495C8.71847 9.87917 8.97524 9.36564 9.48877 8.85212C10.0023 8.33859 10.5158 7.82506 11.2861 7.82506C11.7996 7.5683 12.5699 7.31153 13.597 7.31153C14.624 7.31153 14.8808 7.31153 17.7052 7.31153C20.5296 7.31153 20.7864 7.31153 21.8134 7.31153C22.8405 7.31153 23.6108 7.5683 24.1243 7.82506C24.8946 8.08182 25.4081 8.33859 25.9217 8.85212C26.4352 9.10888 26.6919 9.87917 26.9487 10.3927C27.2055 10.9062 27.4622 11.6765 27.4622 12.7036C27.4622 13.7306 27.4622 13.9874 27.4622 16.8118C27.4622 19.6362 27.4622 20.1497 27.4622 21.1768Z" fill="#12305C"/>
</g>
<defs>
<clipPath id="clip0">
<rect width="33.3793" height="33.3793" fill="white" transform="translate(0.758789 0.378906)"/>
</clipPath>
</defs>
</svg>