<svg width="34" height="34" viewBox="0 0 34 34" fill="none" xmlns="http://www.w3.org/2000/svg">
<g clip-path="url(#clip0)">
<path d="M16.6897 0.378906C7.44615 0.378906 0 7.82506 0 17.0686C0 26.3121 7.44615 33.7582 16.6897 33.7582C25.9332 33.7582 33.3793 26.3121 33.3793 17.0686C33.3793 7.82506 25.9332 0.378906 16.6897 0.378906ZM12.3247 24.2579H8.47321V12.19H12.3247V24.2579ZM10.2706 10.6495C8.98674 10.6495 8.21645 9.87917 8.21645 8.85212C8.21645 7.82506 8.98674 7.05477 10.2706 7.05477C11.5544 7.05477 12.3247 7.82506 12.3247 8.85212C12.3247 9.87917 11.5544 10.6495 10.2706 10.6495ZM26.7034 24.2579H22.852V17.5821C22.852 16.0415 22.3385 15.0145 21.0546 15.0145C20.0276 15.0145 19.5141 15.7847 19.2573 16.2983C19.2573 16.555 19.0005 16.8118 19.0005 17.3253V24.2579H15.1491V16.0415C15.1491 14.5009 15.1491 13.2171 15.1491 12.19H18.487L18.7438 13.7306C19.2573 12.9603 20.5411 11.6765 22.5952 11.6765C25.1629 11.6765 26.9602 13.2171 26.9602 16.8118V24.2579H26.7034Z" fill="#12305C"/>
</g>
<defs>
<clipPath id="clip0">
<rect width="33.3793" height="33.3793" fill="white" transform="translate(0 0.378906)"/>
</clipPath>
</defs>
</svg>