<svg width="34" height="34" viewBox="0 0 34 34" fill="none" xmlns="http://www.w3.org/2000/svg">
<g clip-path="url(#clip0)">
<path d="M17.069 0.378906C7.82555 0.378906 0.379395 7.82506 0.379395 17.0686C0.379395 26.3121 7.82555 33.7582 17.069 33.7582C26.3126 33.7582 33.7587 26.3121 33.7587 17.0686C33.7587 7.82506 26.3126 0.378906 17.069 0.378906ZM21.434 13.7306L21.1773 16.8118H18.3529V26.0553H14.5014V16.8118H12.7041V13.7306H14.5014V11.9333C14.5014 9.36564 15.7852 7.82506 18.8664 7.82506C19.8935 7.82506 20.6637 8.08182 21.6908 8.08182L21.1773 10.9062C20.6637 10.9062 19.8935 10.6495 19.6367 10.6495C18.3529 10.6495 18.3529 11.163 18.3529 11.9333V13.4739H21.434V13.7306Z" fill="#12305C"/>
</g>
<defs>
<clipPath id="clip0">
<rect width="33.3793" height="33.3793" fill="white" transform="translate(0.379395 0.378906)"/>
</clipPath>
</defs>
</svg>