<svg width="34" height="34" viewBox="0 0 34 34" fill="none" xmlns="http://www.w3.org/2000/svg">
<g clip-path="url(#clip0)">
<path d="M15.031 12.5811C15.031 12.5811 14.7742 12.5811 14.5174 12.5811C14.2607 12.5811 14.5174 12.8378 14.5174 12.8378V19.7704C14.5174 20.0272 14.5174 20.0272 14.7742 20.0272C15.031 20.0272 15.031 20.0272 15.2877 20.0272L20.6798 16.4325L20.9365 16.1757C20.9365 15.919 20.9365 15.919 20.6798 15.919L15.031 12.5811Z" fill="#12305C"/>
<path d="M16.8278 0C7.58434 0 0.138184 7.44615 0.138184 16.6897C0.138184 25.9332 7.58434 33.3793 16.8278 33.3793C26.0713 33.3793 33.5175 25.9332 33.5175 16.6897C33.5175 7.44615 26.0713 0 16.8278 0ZM26.3281 20.2844C26.3281 22.0817 24.7875 23.3655 23.2469 23.3655H10.4087C8.61139 23.3655 7.32757 21.8249 7.32757 20.2844V13.095C7.32757 11.2976 8.86816 10.0138 10.4087 10.0138H23.2469C25.0443 10.0138 26.3281 11.5544 26.3281 13.095V20.2844Z" fill="#12305C"/>
</g>
<defs>
<clipPath id="clip0">
<rect width="33.3793" height="33.3793" fill="white" transform="translate(0.138184)"/>
</clipPath>
</defs>
</svg>